<mxfile host="app.diagrams.net" modified="2022-10-16T14:30:43.593Z" agent="5.0 (Windows NT 10.0; Win64; x64) AppleWebKit/537.36 (KHTML, like Gecko) Chrome/104.0.5112.124 YaBrowser/22.9.3.886 Yowser/2.5 Safari/537.36" etag="dh19jIBb--p-Eh5eNv6h" version="20.4.1" type="github">
  <diagram id="C5RBs43oDa-KdzZeNtuy" name="Page-1">
    <mxGraphModel dx="990" dy="575" grid="1" gridSize="10" guides="1" tooltips="1" connect="1" arrows="1" fold="1" page="1" pageScale="1" pageWidth="827" pageHeight="1169" math="0" shadow="0">
      <root>
        <mxCell id="WIyWlLk6GJQsqaUBKTNV-0" />
        <mxCell id="WIyWlLk6GJQsqaUBKTNV-1" parent="WIyWlLk6GJQsqaUBKTNV-0" />
        <mxCell id="SmyrjRfzDjhhdNDZTAU0-21" value="" style="edgeStyle=orthogonalEdgeStyle;rounded=0;orthogonalLoop=1;jettySize=auto;html=1;" edge="1" parent="WIyWlLk6GJQsqaUBKTNV-1" source="SmyrjRfzDjhhdNDZTAU0-0" target="SmyrjRfzDjhhdNDZTAU0-5">
          <mxGeometry relative="1" as="geometry" />
        </mxCell>
        <mxCell id="SmyrjRfzDjhhdNDZTAU0-0" value="Начало" style="ellipse;whiteSpace=wrap;html=1;" vertex="1" parent="WIyWlLk6GJQsqaUBKTNV-1">
          <mxGeometry x="371.5" y="70" width="120" height="80" as="geometry" />
        </mxCell>
        <mxCell id="SmyrjRfzDjhhdNDZTAU0-19" value="" style="edgeStyle=orthogonalEdgeStyle;rounded=0;orthogonalLoop=1;jettySize=auto;html=1;" edge="1" parent="WIyWlLk6GJQsqaUBKTNV-1" source="SmyrjRfzDjhhdNDZTAU0-1" target="SmyrjRfzDjhhdNDZTAU0-3">
          <mxGeometry relative="1" as="geometry" />
        </mxCell>
        <mxCell id="SmyrjRfzDjhhdNDZTAU0-1" value="Ввод размера&amp;nbsp;&lt;br&gt;массивов&lt;br&gt;array[size]&lt;br&gt;newarray[size]" style="shape=parallelogram;perimeter=parallelogramPerimeter;whiteSpace=wrap;html=1;fixedSize=1;" vertex="1" parent="WIyWlLk6GJQsqaUBKTNV-1">
          <mxGeometry x="346" y="290" width="171" height="60" as="geometry" />
        </mxCell>
        <mxCell id="SmyrjRfzDjhhdNDZTAU0-30" value="" style="edgeStyle=orthogonalEdgeStyle;rounded=0;orthogonalLoop=1;jettySize=auto;html=1;" edge="1" parent="WIyWlLk6GJQsqaUBKTNV-1" source="SmyrjRfzDjhhdNDZTAU0-3" target="SmyrjRfzDjhhdNDZTAU0-4">
          <mxGeometry relative="1" as="geometry" />
        </mxCell>
        <mxCell id="SmyrjRfzDjhhdNDZTAU0-3" value="Ввод элементов&lt;br&gt;массива&lt;br&gt;array[size]" style="shape=parallelogram;perimeter=parallelogramPerimeter;whiteSpace=wrap;html=1;fixedSize=1;" vertex="1" parent="WIyWlLk6GJQsqaUBKTNV-1">
          <mxGeometry x="358.5" y="390" width="146" height="60" as="geometry" />
        </mxCell>
        <mxCell id="SmyrjRfzDjhhdNDZTAU0-25" style="edgeStyle=orthogonalEdgeStyle;rounded=0;orthogonalLoop=1;jettySize=auto;html=1;entryX=0.5;entryY=0;entryDx=0;entryDy=0;" edge="1" parent="WIyWlLk6GJQsqaUBKTNV-1" source="SmyrjRfzDjhhdNDZTAU0-4" target="SmyrjRfzDjhhdNDZTAU0-24">
          <mxGeometry relative="1" as="geometry" />
        </mxCell>
        <mxCell id="SmyrjRfzDjhhdNDZTAU0-31" value="" style="edgeStyle=orthogonalEdgeStyle;rounded=0;orthogonalLoop=1;jettySize=auto;html=1;" edge="1" parent="WIyWlLk6GJQsqaUBKTNV-1" source="SmyrjRfzDjhhdNDZTAU0-4" target="SmyrjRfzDjhhdNDZTAU0-9">
          <mxGeometry relative="1" as="geometry" />
        </mxCell>
        <mxCell id="SmyrjRfzDjhhdNDZTAU0-4" value="For i 0 to array.length - 1&amp;nbsp;&amp;nbsp;" style="rhombus;whiteSpace=wrap;html=1;" vertex="1" parent="WIyWlLk6GJQsqaUBKTNV-1">
          <mxGeometry x="343.5" y="530" width="176" height="130" as="geometry" />
        </mxCell>
        <mxCell id="SmyrjRfzDjhhdNDZTAU0-20" value="" style="edgeStyle=orthogonalEdgeStyle;rounded=0;orthogonalLoop=1;jettySize=auto;html=1;" edge="1" parent="WIyWlLk6GJQsqaUBKTNV-1" source="SmyrjRfzDjhhdNDZTAU0-5" target="SmyrjRfzDjhhdNDZTAU0-1">
          <mxGeometry relative="1" as="geometry" />
        </mxCell>
        <mxCell id="SmyrjRfzDjhhdNDZTAU0-5" value="string [] array = new string [size]&lt;br&gt;string [] newarray = new string [size]&lt;br&gt;count = 0" style="rounded=0;whiteSpace=wrap;html=1;" vertex="1" parent="WIyWlLk6GJQsqaUBKTNV-1">
          <mxGeometry x="316.75" y="190" width="229.5" height="60" as="geometry" />
        </mxCell>
        <mxCell id="SmyrjRfzDjhhdNDZTAU0-11" value="" style="edgeStyle=orthogonalEdgeStyle;rounded=0;orthogonalLoop=1;jettySize=auto;html=1;" edge="1" parent="WIyWlLk6GJQsqaUBKTNV-1" source="SmyrjRfzDjhhdNDZTAU0-9" target="SmyrjRfzDjhhdNDZTAU0-10">
          <mxGeometry relative="1" as="geometry" />
        </mxCell>
        <mxCell id="SmyrjRfzDjhhdNDZTAU0-22" style="edgeStyle=orthogonalEdgeStyle;rounded=0;orthogonalLoop=1;jettySize=auto;html=1;" edge="1" parent="WIyWlLk6GJQsqaUBKTNV-1" source="SmyrjRfzDjhhdNDZTAU0-9">
          <mxGeometry relative="1" as="geometry">
            <mxPoint x="780" y="795" as="targetPoint" />
            <Array as="points">
              <mxPoint x="429" y="950" />
              <mxPoint x="780" y="950" />
            </Array>
          </mxGeometry>
        </mxCell>
        <mxCell id="SmyrjRfzDjhhdNDZTAU0-9" value="if array[i].Length &amp;lt;= 3" style="rhombus;whiteSpace=wrap;html=1;" vertex="1" parent="WIyWlLk6GJQsqaUBKTNV-1">
          <mxGeometry x="325.75" y="720" width="211.5" height="150" as="geometry" />
        </mxCell>
        <mxCell id="SmyrjRfzDjhhdNDZTAU0-28" style="edgeStyle=orthogonalEdgeStyle;rounded=0;orthogonalLoop=1;jettySize=auto;html=1;exitX=1;exitY=0.5;exitDx=0;exitDy=0;entryX=1;entryY=0.5;entryDx=0;entryDy=0;" edge="1" parent="WIyWlLk6GJQsqaUBKTNV-1" source="SmyrjRfzDjhhdNDZTAU0-10" target="SmyrjRfzDjhhdNDZTAU0-4">
          <mxGeometry relative="1" as="geometry">
            <Array as="points">
              <mxPoint x="780" y="795" />
              <mxPoint x="780" y="595" />
            </Array>
          </mxGeometry>
        </mxCell>
        <mxCell id="SmyrjRfzDjhhdNDZTAU0-10" value="newarray[count] = array[i]&lt;br&gt;count ++" style="rounded=0;whiteSpace=wrap;html=1;" vertex="1" parent="WIyWlLk6GJQsqaUBKTNV-1">
          <mxGeometry x="580" y="765" width="161" height="60" as="geometry" />
        </mxCell>
        <mxCell id="SmyrjRfzDjhhdNDZTAU0-14" value="Yes" style="text;html=1;align=center;verticalAlign=middle;resizable=0;points=[];autosize=1;strokeColor=none;fillColor=none;" vertex="1" parent="WIyWlLk6GJQsqaUBKTNV-1">
          <mxGeometry x="530" y="750" width="40" height="30" as="geometry" />
        </mxCell>
        <mxCell id="SmyrjRfzDjhhdNDZTAU0-23" value="No" style="text;html=1;align=center;verticalAlign=middle;resizable=0;points=[];autosize=1;strokeColor=none;fillColor=none;" vertex="1" parent="WIyWlLk6GJQsqaUBKTNV-1">
          <mxGeometry x="440" y="890" width="40" height="30" as="geometry" />
        </mxCell>
        <mxCell id="SmyrjRfzDjhhdNDZTAU0-27" value="" style="edgeStyle=orthogonalEdgeStyle;rounded=0;orthogonalLoop=1;jettySize=auto;html=1;" edge="1" parent="WIyWlLk6GJQsqaUBKTNV-1" source="SmyrjRfzDjhhdNDZTAU0-24" target="SmyrjRfzDjhhdNDZTAU0-26">
          <mxGeometry relative="1" as="geometry" />
        </mxCell>
        <mxCell id="SmyrjRfzDjhhdNDZTAU0-24" value="Вывод newarray[count]" style="shape=parallelogram;perimeter=parallelogramPerimeter;whiteSpace=wrap;html=1;fixedSize=1;" vertex="1" parent="WIyWlLk6GJQsqaUBKTNV-1">
          <mxGeometry x="120" y="620" width="190" height="60" as="geometry" />
        </mxCell>
        <mxCell id="SmyrjRfzDjhhdNDZTAU0-26" value="Конец" style="ellipse;whiteSpace=wrap;html=1;" vertex="1" parent="WIyWlLk6GJQsqaUBKTNV-1">
          <mxGeometry x="155" y="730" width="120" height="80" as="geometry" />
        </mxCell>
      </root>
    </mxGraphModel>
  </diagram>
</mxfile>
